<svg width="24" height="24" viewBox="0 0 24 24" fill="none" xmlns="http://www.w3.org/2000/svg">
<path d="M12 0C18.6274 0 24 5.37258 24 12C24 18.6274 18.6274 24 12 24C5.37258 24 0 18.6274 0 12C0 5.37258 5.37258 0 12 0ZM8.60059 7.74023C7.60805 6.96429 6 6.365 6 8.27539C6.00008 8.65679 6.21003 11.4786 6.33496 11.9385C6.76168 13.5321 8.32233 13.9404 9.71094 13.6924C7.28503 14.1221 6.66998 15.5455 8.00195 16.9697C10.5314 19.6755 11.6388 16.2929 11.9219 15.4258C11.962 15.3079 11.9835 15.2344 12 15.2344C12.0165 15.2344 12.038 15.3055 12.0781 15.4258C12.3611 16.2929 13.4662 19.6755 15.998 16.9697C17.3324 15.5455 16.715 14.1221 14.2891 13.6924C15.6777 13.9404 17.2389 13.5325 17.668 11.9414C17.7906 11.4822 18 8.65795 18 8.27734C17.9998 6.36729 16.3919 6.96628 15.3994 7.74219C14.0227 8.81768 12.5423 10.9981 12 12.167C11.4577 10.9957 9.97733 8.81522 8.60059 7.74219V7.74023Z" fill="#ECECE8"/>
</svg>
