<svg width="64" height="64" viewBox="0 0 64 64" fill="none" xmlns="http://www.w3.org/2000/svg">
<g clip-path="url(#clip0_968_376)">
<path d="M0 32C0 40.4869 3.37142 48.6263 9.37258 54.6274C15.3737 60.6286 23.5131 64 32 64C40.4869 64 48.6263 60.6286 54.6274 54.6274C60.6286 48.6263 64 40.4869 64 32C64 23.5131 60.6286 15.3737 54.6274 9.37258C48.6263 3.37142 40.4869 0 32 0C23.5131 0 15.3737 3.37142 9.37258 9.37258C3.37142 15.3737 0 23.5131 0 32ZM30.125 47.125C28.95 48.3 27.05 48.3 25.8875 47.125C24.725 45.95 24.7125 44.05 25.8875 42.8875L36.7625 32.0125L25.8875 21.1375C24.7125 19.9625 24.7125 18.0625 25.8875 16.9C27.0625 15.7375 28.9625 15.725 30.125 16.9L43.125 29.875C44.3 31.05 44.3 32.95 43.125 34.1125L30.125 47.125Z" fill="#F3EBD7"/>
</g>
<defs>
<clipPath id="clip0_968_376">
<rect width="64" height="64" fill="white"/>
</clipPath>
</defs>
</svg>
