<svg width="24" height="24" viewBox="0 0 24 24" fill="none" xmlns="http://www.w3.org/2000/svg">
<g clip-path="url(#clip0_967_364)">
<mask id="mask0_967_364" style="mask-type:luminance" maskUnits="userSpaceOnUse" x="0" y="0" width="24" height="24">
<path d="M0 0H24V24H0V0Z" fill="white"/>
</mask>
<g mask="url(#mask0_967_364)">
<path d="M12 24C8.8174 24 5.76515 22.7357 3.51472 20.4853C1.26428 18.2348 0 15.1826 0 12C0 8.8174 1.26428 5.76516 3.51472 3.51472C5.76515 1.26428 8.8174 0 12 0C15.1826 0 18.2348 1.26428 20.4853 3.51472C22.7357 5.76516 24 8.8174 24 12C24 15.1826 22.7357 18.2348 20.4853 20.4853C18.2348 22.7357 15.1826 24 12 24ZM18 9C18 8.17031 17.3297 7.5 16.5 7.5H7.5C6.67031 7.5 6 8.17031 6 9V9.43594L11.5922 11.9813C11.7187 12.0375 11.8594 12.0703 12 12.0703C12.1406 12.0703 12.2766 12.0422 12.4078 11.9813L18 9.43594V9ZM10.9734 13.3453L6 11.0859V15C6 15.8297 6.67031 16.5 7.5 16.5H16.5C17.3297 16.5 18 15.8297 18 15V11.0859L13.0266 13.35C12.7031 13.4953 12.3562 13.575 12 13.575C11.6438 13.575 11.2969 13.5 10.9734 13.35V13.3453Z" fill="#FBC02A"/>
</g>
</g>
<defs>
<clipPath id="clip0_967_364">
<rect width="24" height="24" fill="white"/>
</clipPath>
</defs>
</svg>
